HIERARCHY
ROOT pelvis
{
  OFFSET 0 100 0
  CHANNELS 6 Xposition Yposition Zposition Zrotation Xrotation Yrotation
  JOINT pelvis_right_femur
  {
    OFFSET -10.78128 -3.44521 -0.5502486
    CHANNELS 3 Zrotation Xrotation Yrotation
    JOINT right_femur_tibia
    {
      OFFSET -0.8047443 -44.0398 -0.1307829
      CHANNELS 3 Zrotation Xrotation Yrotation
      JOINT right_tibia_foot
      {
        OFFSET 3.006224 -47.83518 -5
        CHANNELS 3 Zrotation Xrotation Yrotation
        End Site
        {
          OFFSET 0 -5 15
        }
      }
    }
  }
  JOINT pelvis_left_femur
  {
    OFFSET 10.78128 -3.44521 -0.5502486
    CHANNELS 3 Zrotation Xrotation Yrotation
    JOINT left_femur_tibia
    {
      OFFSET 0.8047443 -44.0398 -0.1307829
      CHANNELS 3 Zrotation Xrotation Yrotation
      JOINT left_tibia_foot
      {
        OFFSET -4.370144 -48.10324 -4.275266
        CHANNELS 3 Zrotation Xrotation Yrotation
        End Site
        {
          OFFSET 0 -5 15
        }
      }
    }
  }
  JOINT pelvis_spine1
  {
    OFFSET 0 6.468898 -3.129235
    CHANNELS 3 Zrotation Xrotation Yrotation
    JOINT spine1
    {
      OFFSET 0 23.15396 4.99043
      CHANNELS 3 Zrotation Xrotation Yrotation
      JOINT spine2
      {
        OFFSET 0 20.79997 -5.064912
        CHANNELS 3 Zrotation Xrotation Yrotation
        JOINT neck
        {
          OFFSET 0 14.38658 9.616178
          CHANNELS 3 Zrotation Xrotation Yrotation
          End Site
          {
            OFFSET 0 20 0
          }
        }
      }
      JOINT right_manubrium
      {
        OFFSET -5.722621 16.35077 3.967754
        CHANNELS 3 Zrotation Xrotation Yrotation
        JOINT right_clavicle
        {
          OFFSET -13.16364 1.694482 -4.693211
          CHANNELS 3 Zrotation Xrotation Yrotation
          JOINT right_humerus
          {
            OFFSET -28.5034 -0.3100689 -2.792744
            CHANNELS 3 Zrotation Xrotation Yrotation
            JOINT right_radius
            {
              OFFSET -25.15693 0.02248979 -1.271978
              CHANNELS 3 Zrotation Xrotation Yrotation
              End Site
              {
                OFFSET -15 0 0
              }
            }
          }
        }
      }
      JOINT left_manubrium
      {
        OFFSET 5.722621 16.35077 3.967754
        CHANNELS 3 Zrotation Xrotation Yrotation
        JOINT left_clavicle
        {
          OFFSET 13.16364 1.694482 -4.693211
          CHANNELS 3 Zrotation Xrotation Yrotation
          JOINT left_humerus
          {
            OFFSET 29.39168 -1.063119 -2.237045
            CHANNELS 3 Zrotation Xrotation Yrotation
            JOINT left_radius
            {
              OFFSET 24.59957 -0.9528479 0.9047498
              CHANNELS 3 Zrotation Xrotation Yrotation
              End Site
              {
                OFFSET 15 -0 -0
              }
            }
          }
        }
      }
    }
  }
}
MOTION
Frames: 11
Frame Time: 0.0416666666667
0 103.5113 0 1.563435 -3.215833 0.3088686 1.223132 -10.90727 6.893984 -0 41.41802 -0 -6.815003 -16.32693 -3.729309 -6.653285 12.15474 -24.59895 -0 5.287655 -0 0.6836059 -18.47671 23.28137 -0.4531038 -1.783847 3.419907 0.306407 6.839582 -7.079038 1.609801 22.57117 8.649148 5.913674 -22.6686 9.057279 6.060695 -17.74081 9.977775 88.7788 36.6493 -23.72901 -0 0 15.51916 -6.673941 8.449343 2.161589 7.629105 -20.81949 -2.466021 -101.945 42.37309 28.69966 0 0 -23.12815 -9.080846 19.4372 27.55005
0.164762 103.6275 1.235467 0.934615 -2.44418 0.4551515 1.925826 -13.27748 7.610097 -0 42.78267 -0 -7.288971 -16.64464 -4.483068 -6.176205 12.41004 -24.85338 -0 5.80267 -0 -1.417086 -19.81594 22.50748 -0.3489629 -1.857502 3.523255 0.1816544 6.92267 -7.076494 1.638671 22.39079 8.741864 5.980365 -22.64785 9.154013 6.012323 -17.77154 9.924237 89.00995 36.8019 -23.93238 -0 0 15.59692 -6.716163 8.687291 2.116555 7.846477 -21.01331 -2.426133 -101.6681 42.21742 28.48188 0 0 -23.66863 -8.742617 19.33502 27.28461
0.3157065 103.611 2.701495 0.1855945 -1.045311 0.5073206 3.42781 -18.80147 7.569853 -0 39.22628 -0 -7.188577 -15.08931 -4.457682 -5.863155 12.52005 -23.69488 -0 6.09647 -0 -0.8252442 -21.34843 22.13483 -0.4524946 -1.638523 3.490778 0.8569486 7.241102 -7.592562 1.43005 21.95926 8.530513 5.471754 -23.19549 8.976156 5.951646 -17.59918 10.28703 89.26573 36.5073 -24.40968 -0 0 14.64633 -7.088486 9.247303 2.917369 7.222057 -21.1507 -2.56976 -99.17642 40.7327 26.34729 0 0 -24.83405 -7.80689 17.68723 26.10564
0.4684397 103.4022 4.45246 -0.3718349 -0.03992353 0.5266588 4.564837 -23.30726 7.369599 -0 35.42357 -0 -7.00098 -13.1514 -4.309963 -5.557998 12.67308 -22.61868 -0 6.312538 -0 -0.6572907 -22.72674 21.49787 -0.6175144 -1.438386 3.381989 1.257776 7.328054 -7.797818 1.293443 21.96732 8.376664 5.191099 -23.39446 8.791576 5.974395 -17.45906 10.51329 89.13178 36.2943 -24.3353 -0 0 14.06705 -7.515735 9.446752 3.434446 6.70602 -21.03195 -2.687725 -98.23227 40.0479 25.5215 0 0 -24.69749 -7.673979 17.04829 25.76534
0.6320192 102.9506 6.632307 -0.7438998 1.009512 0.5528966 5.516077 -27.75699 6.81718 -0 30.18087 -0 -6.564336 -10.70231 -3.819351 -5.416252 12.93557 -21.36497 -0 6.364869 -0 0.1284819 -23.91396 20.91088 -0.7993379 -1.244169 3.276171 1.654768 7.385472 -7.977752 1.159788 22.01122 8.201387 4.909931 -23.594 8.588455 5.994408 -17.34129 10.73739 88.91897 36.06759 -24.16395 -0 0 13.55004 -7.888538 9.53577 3.945728 6.178154 -20.86276 -2.794934 -97.43135 39.40363 24.83668 0 0 -24.44008 -7.583563 16.4678 25.44455
0.8022017 102.271 9.339138 -0.9849227 1.955849 0.6439329 6.16792 -31.52599 6.007821 -0 24.79091 -0 -6.172702 -8.010089 -3.184047 -5.330887 13.39198 -20.14369 -0 6.635077 -0 0.6959223 -24.79235 20.07738 -0.9866244 -1.077972 3.170713 1.956441 7.369293 -8.062507 1.056226 22.1513 8.044082 4.695779 -23.71405 8.403113 6.018079 -17.25727 10.90677 88.61195 35.90087 -23.84699 -0 0 13.1966 -8.204387 9.506721 4.349346 5.721247 -20.63021 -2.87601 -97.03505 39.02104 24.50885 0 0 -23.93495 -7.658834 16.16941 25.30852
0.9685075 101.4437 12.66855 -1.176169 2.82345 0.8591419 6.608962 -34.42913 5.072185 -0 19.89706 -0 -5.974323 -5.289079 -2.513313 -5.251526 14.07488 -18.96216 -0 7.532839 -0 0.8154693 -25.14165 18.88224 -1.179802 -0.9234845 3.073849 2.223521 7.326681 -8.109785 0.9627182 22.31721 7.891429 4.499942 -23.81024 8.22507 6.032964 -17.18965 11.05616 88.26427 35.7752 -23.45852 -0 0 12.90691 -8.517483 9.450033 4.734301 5.292189 -20.37389 -2.943212 -96.73355 38.69718 24.27227 0 0 -23.37724 -7.749012 15.95136 25.18381
1.120316 100.6032 16.67763 -1.415013 3.556061 1.229724 6.986886 -36.11597 4.253236 -0 16.28246 -0 -6.083551 -2.880094 -1.979899 -5.09738 14.89269 -17.81026 -0 9.548111 -0 0.1621671 -24.70122 17.21108 -1.382905 -0.7741292 2.985718 2.454281 7.261939 -8.116197 0.8779053 22.51139 7.747362 4.322119 -23.87223 8.054928 6.038729 -17.13351 11.18689 87.87211 35.70494 -22.98602 -0 0 12.66713 -8.878935 9.403332 5.11988 4.885563 -20.09449 -3.000779 -96.49415 38.41198 24.09837 0 0 -22.76501 -7.846046 15.80623 25.06225
1.253116 99.91465 21.37583 -1.774808 4.074681 1.735835 7.462784 -36.28114 3.764113 -0 14.38261 -0 -6.510399 -1.14728 -1.71434 -4.808721 15.60956 -16.62559 -0 13.16574 -0 -1.371521 -23.19846 15.0846 -1.598586 -0.6224878 2.914286 2.660039 7.192428 -8.09076 0.7961336 22.71624 7.609665 4.150489 -23.9058 7.887982 6.031049 -17.08647 11.30982 87.43691 35.69347 -22.42526 -0 0 12.45243 -9.342156 9.40901 5.547852 4.48673 -19.80073 -3.05353 -96.22558 38.0884 23.91499 0 0 -22.13845 -7.900535 15.67422 24.88713
1.372913 99.53552 26.7026 -2.261201 4.259093 2.288384 8.076193 -34.70615 3.669431 -0 14.18334 -0 -7.145341 -0.432963 -1.778522 -4.364223 15.82039 -15.36272 -0 18.71478 -0 -3.658156 -20.48793 12.72285 -1.827376 -0.4658712 2.870345 2.837716 7.129258 -8.030674 0.7167351 22.92272 7.479429 3.983145 -23.90597 7.723534 6.006469 -17.05308 11.42853 86.95024 35.74963 -21.75689 -0 0 12.26348 -9.952592 9.496484 6.044165 4.092868 -19.49641 -3.103056 -95.89037 37.68423 23.69959 0 0 -21.51356 -7.884159 15.52796 24.63014
1.494573 99.5753 32.51873 -2.77739 3.975594 2.735944 8.666476 -31.38546 3.793615 -0 15.12144 -0 -7.78744 -0.9114877 -2.101883 -3.803378 15.0122 -14.03285 -0 26.22931 -0 -6.314886 -16.6974 10.52651 -2.06544 -0.3052284 2.870648 2.980951 7.087807 -7.933554 0.6403794 23.11459 7.357991 3.819297 -23.86912 7.562275 5.960484 -17.04323 11.54637 86.40581 35.87636 -20.9644 -0 0 12.11171 -10.74942 9.69115 6.633103 3.706347 -19.18965 -3.149275 -95.45591 37.15188 23.43853 0 0 -20.91729 -7.762566 15.33237 24.26012
